# AST/ASF file generated using VICON BodyLanguage
# -----------------------------------------------
:version 1.10
:name VICON
:units
  mass 1.0
  length 0.45
  angle deg
:documentation
   .ast/.asf automatically generated from VICON data using
   VICON BodyBuilder and BodyLanguage model FoxedUp or BRILLIANT.MOD
:root
   order TX TY TZ RX RY RZ
   axis XYZ
   position 0 0 0  
   orientation 0 0 0 
:bonedata
  begin
     id 1 
     name lhipjoint
     direction 0.567725 -0.736092 0.368589 
     length 2.42353 
     axis 0 0 0  XYZ
  end
  begin
     id 2 
     name lfemur
     direction 0.34202 -0.939693 0  
     length 7.24894  
     axis 0 0 20  XYZ
    dof rx ry rz
    limits (-160.0 20.0)
           (-70.0 70.0)
           (-60.0 70.0)
  end
  begin
     id 3 
     name ltibia
     direction 0.34202 -0.939693 0   
     length 7.6997   
     axis 0 0 20   XYZ
    dof rx
    limits (-10.0 170.0)
  end
  begin
     id 4 
     name lfoot
     direction 0.100767 -0.276854 0.955614   
     length 2.37556   
     axis -90 7.62852e-016 20   XYZ
    dof rx rz
    limits (-45.0 90.0)
           (-70.0 20.0)
  end
  begin
     id 5 
     name ltoes
     direction 1.53592e-011 -4.21894e-011 1   
     length 1.18363   
     axis -90 7.62852e-016 20   XYZ
    dof rx
    limits (-90.0 20.0)
  end
  begin
     id 6 
     name rhipjoint
     direction -0.556459 -0.742938 0.372017   
     length 2.4012  
     axis 0 0 0  XYZ 
  end
  begin
     id 7 
     name rfemur
     direction -0.34202 -0.939693 0   
     length 7.5119   
     axis 0 0 -20   XYZ
    dof rx ry rz
    limits (-160.0 20.0)
           (-70.0 70.0)
           (-70.0 60.0)
  end
  begin
     id 8 
     name rtibia
     direction -0.34202 -0.939693 0   
     length 7.50155   
     axis 0 0 -20   XYZ
    dof rx
    limits (-10.0 170.0)
 end
 begin
     id 9 
     name rfoot
     direction -0.118427 -0.325376 0.938139   
     length 2.32487  
     axis -90 -7.62852e-016 -20   XYZ
    dof rx rz
    limits (-45.0 90.0)
           (-20.0 70.0)
  end
  begin
     id 10 
     name rtoes
     direction -1.53525e-011 -4.21868e-011 1   
     length 1.15233   
     axis -90 -7.62852e-016 -20   XYZ
    dof rx
    limits (-90.0 20.0)
  end
  begin
     id 11 
     name lowerback
     direction 0.0287568 0.999577 -0.00434502   
     length 2.15243   
     axis 0 0 0   XYZ
    dof rx ry rz
    limits (-20.0 45.0)
           (-30.0 30.0)
           (-30.0 30.0)
  end
  begin
     id 12 
     name upperback
     direction 0.0294009 0.99956 0.00404628   
     length 2.15427   
     axis 0 0 0   XYZ
    dof rx ry rz
    limits (-20.0 45.0)
           (-30.0 30.0)
           (-30.0 30.0)
  end
  begin
     id 13 
     name thorax
     direction 0.0151014 0.999868 0.0059419   
     length 2.14898   
     axis 0 0 0   XYZ
    dof rx ry rz
    limits (-20.0 45.0)
           (-30.0 30.0)
           (-30.0 30.0)
  end
  begin
     id 14 
     name lowerneck
     direction -0.0249197 0.989906 0.139515   
     length 1.6861   
     axis 0 0 0   XYZ
    dof rx ry rz
    limits (-20.0 45.0)
           (-30.0 30.0)
           (-30.0 30.0)
  end
  begin
     id 15 
     name upperneck
     direction 0.0438463 0.988795 -0.142693   
     length 1.71276   
     axis 0 0 0   XYZ
    dof rx ry rz
    limits (-20.0 45.0)
           (-30.0 30.0)
           (-30.0 30.0)
  end
  begin
     id 16
     name head
     direction 0.0148499 0.997845 -0.0639186  
     length 1.7209  
     axis 0 0 0   XYZ
    dof rx ry rz
    limits (-20.0 45.0)
           (-30.0 30.0)
           (-30.0 30.0)
  end
  begin
     id 17 
     name lclavicle
     direction 0.940298 0.323464 -0.105876  
     length 3.9048  
     axis 0 0 0   XYZ
    dof ry rz
    limits (-20.0 10.0)
           (0.0 20.0)
  end
  begin
     id 18 
     name lhumerus
     direction 1 -4.48954e-011 -4.9675e-028   
     length 4.6851   
     axis 180 -30 -90   XYZ
    dof rx ry rz
    limits (-60.0 90.0)
           (-90.0 90.0)
           (-90.0 90.0)
  end
  begin
     id 19
     name lradius
     direction 1 -4.48992e-011 -1.03359e-026   
     length 3.39626   
     axis 180 -30 -90   XYZ
    dof rx
    limits (-10.0 170.0)
  end
  begin
     id 20
     name lwrist
     direction 1 -4.48906e-011 -1.67336e-026   
     length 1.69813   
     axis 9.90442e-015 90 90   XYZ
    dof ry
    limits (-180.0 0.0)
 end
  begin
     id 21 
     name lhand
     direction 1 -4.49006e-011 -3.34673e-026   
     length 0.486078   
     axis 2.1355e-014 90 90   XYZ
    dof rx rz
    limits (-90.0 90.0)
           (-45.0 45.0)
  end
  begin
     id 22 
     name lfingers
     direction 1 -4.48992e-011 -6.69345e-026   
     length 0.391889   
     axis 4.27099e-014 90 90   XYZ
    dof rx
    limits (0.0 90.0)
  end
  begin
     id 23
     name lthumb
     direction 0.707107 -6.34926e-011 0.707107   
     length 0.562676   
     axis -90 45 2.85299e-015   XYZ
    dof rx rz
    limits (-45.0 45.0)
           (-45.0 45.0)
  end
  begin
     id 24 
     name rclavicle
     direction -0.882459 0.414895 -0.221648   
     length 3.44646  
     axis 0 0 0   XYZ 
    dof ry rz
    limits (-10.0 20.0)
           (-20.0 0.0)
  end
  begin
     id 25 
     name rhumerus
     direction -1 -4.48962e-011 -2.37984e-027  
     length 5.55576   
     axis 180 30 90   XYZ
    dof rx ry rz
    limits (-90.0 60.0)
           (-90.0 90.0)
           (-90.0 90.0)
  end
  begin
     id 26 
     name rradius
     direction -1 -4.48982e-011 -6.86791e-027   
     length 3.32774   
     axis 180 30 90   XYZ
    dof rx
    limits (-10.0 170.0)
  end
  begin
     id 27 
     name rwrist
     direction -1 -4.48961e-011 -1.67336e-026   
     length 1.66387   
     axis 9.90442e-015 -90 -90   XYZ
    dof ry
    limits (-180.0 0.0)
  end
  begin
     id 28
     name rhand
     direction -1 -4.4897e-011 -3.34673e-026   
     length 0.507628   
     axis 2.1355e-014 -90 -90   XYZ
    dof rx rz
    limits (-90.0 90.0)
           (-45.0 45.0)
  end
  begin
     id 29
     name rfingers
     direction -1 -4.48854e-011 -6.69345e-026   
     length 0.409263   
     axis 4.27099e-014 -90 -90   XYZ
    dof rx
    limits (0.0 90.0)
  end
  begin
     id 30
     name rthumb
     direction -0.707107 -6.34913e-011 0.707107   
     length 0.587622   
     axis -90 -45 -2.85299e-015   XYZ
    dof rx rz
    limits (-45.0 45.0)
           (-45.0 45.0)
  end
:hierarchy
  begin
    root lhipjoint rhipjoint lowerback
    lhipjoint lfemur
    lfemur ltibia
    ltibia lfoot
    lfoot ltoes
    rhipjoint rfemur
    rfemur rtibia
    rtibia rfoot
    rfoot rtoes
    lowerback upperback
    upperback thorax
    thorax lowerneck lclavicle rclavicle
    lowerneck upperneck
    upperneck head
    lclavicle lhumerus
    lhumerus lradius
    lradius lwrist
    lwrist lhand lthumb
    lhand lfingers
    rclavicle rhumerus
    rhumerus rradius
    rradius rwrist
    rwrist rhand rthumb
    rhand rfingers
  end

#!OML:ASF E:\motion texture\Top Level 1\Subject 1\Session 1\male.ASF
:FULLY-SPECIFIED
:DEGREES
33
root 29.3282 17.3058 6.08685 -19.4195 -88.5099 28.4582
lowerback 0.217349 -2.83929 -1.43558
upperback -0.557287 -3.80017 2.58772
thorax -0.424146 -1.89896 3.47426
lowerneck -8.81406 -3.02207 -8.85417
upperneck -1.15077 -3.47165 10.9598
head 1.45631 -1.54697 4.61677
rclavicle 1.90833e-014 3.18055e-015
rhumerus -28.3042 4.0355 -87.0101
rradius 38.0596
rwrist 3.28974
rhand -18.7293 -28.2597
rfingers 7.12502
rthumb 7.56644 -58.1044
lclavicle 1.90833e-014 3.18055e-015
lhumerus -13.6078 -5.96275 90.901
lradius 42.951
lwrist -17.0688
lhand -16.9492 21.7316
lfingers 7.12502
lthumb 9.28432 51.5072
rfemur -38.3286 -1.03969 17.0165
rtibia 20.3743
rfoot -2.54233 -15.3848
rtoes 3.80734
lfemur 4.56136 -4.11117 -22.6295
ltibia 16.5141
lfoot -15.9536 -3.0493
ltoes -13.8624
34
root 29.1676 17.3144 6.07249 -7.9958 -88.4999 16.9549
lowerback 0.326654 -2.86187 -1.15488
upperback -0.610039 -3.83121 2.80306
thorax -0.540888 -1.91529 3.54708
lowerneck -8.93479 -2.99095 -8.82889
upperneck -1.24739 -3.41958 10.9274
head 1.44077 -1.52058 4.60452
rclavicle 2.16675e-014 -3.97569e-015
rhumerus -28.0679 4.56145 -87.1084
rradius 38.5268
rwrist 3.22183
rhand -18.7556 -28.1959
rfingers 7.12502
rthumb 7.54102 -58.0415
lclavicle 2.16675e-014 -3.97569e-015
lhumerus -13.4401 -5.62112 91.2366
lradius 43.1325
lwrist -17.2108
lhand -17.1626 21.7364
lfingers 7.12502
lthumb 9.07841 51.5211
rfemur -38.2506 -0.726278 17.2851
rtibia 21.1465
rfoot -1.62533 -15.3256
rtoes 4.46931
lfemur 4.86438 -4.40261 -22.3092
ltibia 17.0576
lfoot -15.4995 -3.0614
ltoes -15.1633
35
root 29.0027 17.3271 6.05715 4.76471 -88.437 4.13218
lowerback 0.356488 -2.88454 -0.825676
upperback -0.647342 -3.86243 3.03343
thorax -0.599488 -1.93346 3.60341
lowerneck -9.06333 -2.95858 -8.78743
upperneck -1.33449 -3.36684 10.8684
head 1.42827 -1.49403 4.58132
rclavicle -7.95139e-016 3.18055e-015
rhumerus -27.812 5.06115 -87.199
rradius 38.9913
rwrist 3.10925
rhand -18.6771 -28.2749
rfingers 7.12502
rthumb 7.6168 -58.1178
lclavicle -7.95139e-016 3.18055e-015
lhumerus -13.3328 -5.25258 91.5876
lradius 43.2924
lwrist -17.3342
lhand -17.4802 21.7096
lfingers 7.12502
lthumb 8.772 51.5073
rfemur -38.1345 -0.449541 17.6478
rtibia 21.863
rfoot -0.793235 -15.2764
rtoes 5.2865
lfemur 5.09579 -4.68203 -21.9186
ltibia 17.6922
lfoot -14.9697 -3.09068
ltoes -16.5206
36
root 28.8337 17.3432 6.04093 16.2789 -88.3095 -7.42588
lowerback 0.329406 -2.90748 -0.49169
upperback -0.68955 -3.89469 3.26408
thorax -0.631574 -1.95289 3.65444
lowerneck -9.20529 -2.91895 -8.75054
upperneck -1.37396 -3.3056 10.8108
head 1.43125 -1.46211 4.55939
rclavicle -2.24627e-014 -6.36111e-015
rhumerus -27.5678 5.52976 -87.2843
rradius 39.4469
rwrist 2.98666
rhand -18.5165 -28.4416
rfingers 7.12502
rthumb 7.77181 -58.2788
lclavicle -2.24627e-014 -6.36111e-015
lhumerus -13.3024 -4.87047 91.9507
lradius 43.4157
lwrist -17.4363
lhand -17.8923 21.6732
lfingers 7.12502
lthumb 8.37425 51.4872
rfemur -37.9807 -0.246914 18.0701
rtibia 22.54
rfoot -0.0736957 -15.1806
rtoes 6.31264
lfemur 5.24787 -4.93389 -21.5071
ltibia 18.4274
lfoot -14.3719 -3.15931
ltoes -17.8983
37
root 28.661 17.3614 6.02378 25.0835 -88.1484 -16.2508
lowerback 0.219887 -2.92988 -0.191107
upperback -0.725916 -3.92833 3.47979
thorax -0.610321 -1.97364 3.70381
lowerneck -9.33674 -2.87569 -8.69415
upperneck -1.39475 -3.24271 10.7355
head 1.43717 -1.4297 4.52887
rclavicle 3.54831e-014 -2.54444e-014
rhumerus -27.3156 5.96833 -87.3728
rradius 39.8781
rwrist 2.88745
rhand -18.3007 -28.5795
rfingers 7.12502
rthumb 7.98015 -58.4088
lclavicle 3.54831e-014 -2.54444e-014
lhumerus -13.3311 -4.51245 92.3086
lradius 43.5109
lwrist -17.5
lhand -18.3469 21.6303
lfingers 7.12502
lthumb 7.93552 51.4614
rfemur -37.7981 -0.125996 18.5085
rtibia 23.1692
rfoot 0.55869 -15.0124
rtoes 7.55527
lfemur 5.30578 -5.15118 -21.1141
ltibia 19.2712
lfoot -13.7087 -3.27959
ltoes -19.2477
